<mxfile host="app.diagrams.net" modified="2023-12-07T08:59:37.146Z" agent="Mozilla/5.0 (Windows NT 10.0; Win64; x64) AppleWebKit/537.36 (KHTML, like Gecko) Chrome/119.0.0.0 Safari/537.36" version="21.6.2" etag="JlUiGztWRiGA_UfAie6Q" type="github">
  <diagram name="Page-1" id="TgfR-wHRvrL1EwRK-BiK">
    <mxGraphModel>
      <root>
        <mxCell id="0" />
        <mxCell id="1" parent="0" />
      </root>
    </mxGraphModel>
  </diagram>
</mxfile>
